<?xml version="1.0" encoding="utf-8"?>
<!-- Generator: Adobe Illustrator 18.0.0, SVG Export Plug-In . SVG Version: 6.00 Build 0)  -->
<!DOCTYPE svg PUBLIC "-//W3C//DTD SVG 1.1//EN" "http://www.w3.org/Graphics/SVG/1.1/DTD/svg11.dtd">
<svg version="1.1" id="レイヤー_1" xmlns="http://www.w3.org/2000/svg" xmlns:xlink="http://www.w3.org/1999/xlink" x="0px"
	 y="0px" viewBox="0 237.5 515.9 252" enable-background="new 0 237.5 515.9 252" xml:space="preserve">
<g id="XMLID_3_">
	<g id="XMLID_2_">
		<path id="XMLID_34_" d="M89.9,276.7c-48.1,0-87.4,39.3-87.4,87.4c0,48.3,39.3,87.4,87.4,87.4s87.4-39.3,87.4-87.4
			S138.2,276.7,89.9,276.7z M144.7,412.2c2-5.8,3.1-12.1,3.1-18.6c0-31.9-25.9-57.8-57.8-57.8H75.7v14.4h14.2
			c24,0,43.4,19.5,43.4,43.4c0,24-19.5,43.4-43.4,43.4l0,0c-40.2,0-72.8-32.8-72.8-73c0-18.4,6.8-35.1,18.2-48.1
			c-2,5.8-3.1,12.1-3.1,18.6c0,31.9,25.9,57.8,57.8,57.8h14.2v-14.4H90.1c-24,0-43.4-19.5-43.4-43.4c0-24,19.5-43.2,43.2-43.2l0,0
			c40.2,0,73,32.8,73,73C162.9,382.5,156.1,399.4,144.7,412.2z"/>
		<path id="XMLID_38_" d="M214.6,321H213c-2.7,0-5.2-2-6.3-4.9l-0.4-0.7l-3.4,1.3l0.4,0.7c1.6,4.3,5.2,7.2,9.4,7.4l0,0h0.4h1.6h0.4
			l0,0c5.8-0.2,10.5-5.6,10.5-12.3c0-3.8-1.3-8.8-7.7-11.9l-2.5-1.3c-4.3-2.3-7.4-4.3-7.4-9c0-3.4,2.2-7.2,6.1-7.2h1.4
			c2.7,0,5,1.8,6.1,4.7l0.4,0.7l3.4-1.4l-0.4-0.7c-1.8-4.1-5.6-6.8-9.6-7l0,0h-0.2h-1.4h-0.2l0,0c-5.6,0.2-9.7,4.7-9.7,10.8
			c0,6.8,4.7,9.9,9.6,12.4l2.5,1.3c3.8,1.8,5.6,4.7,5.6,8.6C221.5,317,218.4,321,214.6,321z"/>
		<polygon id="XMLID_39_" points="327.6,320.1 312.8,320.1 312.8,302.3 326.3,302.3 326.3,298.5 312.8,298.5 312.8,284.1 
			327.6,284.1 327.6,280.3 309.2,280.3 309.2,323.9 327.6,323.9 		"/>
		<path id="XMLID_42_" d="M237,312.5h23.4l5.2,11.2h4.1l-21.1-45l-21.1,45h4.1L237,312.5z M248.5,287.7l9.9,21.3h-19.8L248.5,287.7z
			"/>
		<path id="XMLID_43_" d="M342,435.8c0,5.4-4.3,9.9-9.9,9.9c-5.4,0-9.9-4.3-9.9-9.9v-2.9h-3.8v2.9c0,7.6,6.1,13.5,13.5,13.5
			c7.6,0,13.5-6.1,13.5-13.5v-31.2h-3.8v31.2H342z"/>
		<path id="XMLID_46_" d="M222,404.8h-15h-2.2h-1.4v43.4h3.8v-16.9h15c7.4,0,13.3-5.9,13.3-13.3C235.3,410.7,229.4,404.8,222,404.8z
			 M222,427.5h-15v-18.9h15c5.2,0,9.6,4.3,9.6,9.6S227.2,427.5,222,427.5z"/>
		<path id="XMLID_49_" d="M292.5,403.7L292.5,403.7h-1.3h-0.9l0,0c-12.4,0-22.7,10.1-22.7,22.7c0,12.4,10.3,22.7,22.7,22.7l0,0h0.9
			h1.3l0,0c11.9-0.7,21.4-10.6,21.4-22.7S304.4,404.4,292.5,403.7z M291.2,445.3h-0.9l0,0c-10.5,0-18.9-8.5-18.9-18.9
			c0-10.5,8.5-18.9,18.9-18.9l0,0h0.9c10.5,0,18.9,8.5,18.9,18.9C310.1,436.9,301.7,445.3,291.2,445.3z"/>
		<polygon id="XMLID_50_" points="353.7,448.2 372.3,448.2 372.3,444.4 357.5,444.4 357.5,426.8 371,426.8 371,423 357.5,423 
			357.5,408.4 372.3,408.4 372.3,404.6 353.7,404.6 		"/>
		<path id="XMLID_53_" d="M262.9,418.1c0-7.4-5.9-13.3-13.3-13.3h-4.3h-2h-1.8v43.4h3.8v-16.9h2.3l10.3,16.9h4.3l-10.3-17.1
			C258,430,262.9,424.6,262.9,418.1z M249.6,427.5h-4.3v-18.9h4.3c5.2,0,9.6,4.3,9.6,9.6S254.8,427.5,249.6,427.5z"/>
		<polygon id="XMLID_54_" points="424.5,408.4 434.8,408.4 434.8,448.2 438.6,448.2 438.6,408.4 448.9,408.4 448.9,404.6 
			424.5,404.6 		"/>
		<polygon id="XMLID_55_" points="294.8,346.2 294.8,342.4 276.2,342.4 276.2,385.9 294.8,385.9 294.8,382.1 280,382.1 280,364.4 
			293.5,364.4 293.5,360.6 280,360.6 280,346.2 		"/>
		<polygon id="XMLID_56_" points="335.9,382.1 321.1,382.1 321.1,364.4 334.6,364.4 334.6,360.6 321.1,360.6 321.1,346.2 
			335.9,346.2 335.9,342.4 317.3,342.4 317.3,385.9 335.9,385.9 		"/>
		<polygon id="XMLID_57_" points="404.4,382.1 389.6,382.1 389.6,364.4 403.1,364.4 403.1,360.6 389.6,360.6 389.6,346.2 
			404.4,346.2 404.4,342.4 385.8,342.4 385.8,385.9 404.4,385.9 		"/>
		<polygon id="XMLID_58_" points="373.7,376.9 343.8,340.8 343.8,385.9 347.6,385.9 347.6,351.3 377.3,387.3 377.3,342.4 
			373.7,342.4 		"/>
		<path id="XMLID_61_" d="M416.1,368.9h2.3l10.3,16.9h4.3l-10.3-17.1c6.3-1.1,11-6.5,11-13.2c0-7.4-5.9-13.3-13.3-13.3h-4.3h-2h-1.8
			v43.4h3.8L416.1,368.9L416.1,368.9z M416.1,346.2h4.3c5.2,0,9.6,4.3,9.6,9.6s-4.3,9.6-9.6,9.6h-4.3V346.2z"/>
		<polygon id="XMLID_62_" points="268,385.9 268,342.4 264.2,342.4 264.2,360.6 237.1,360.6 237.1,342.4 233.4,342.4 233.4,385.9 
			237.1,385.9 237.1,364.4 264.2,364.4 264.2,385.9 		"/>
		<polygon id="XMLID_63_" points="212.6,385.9 216.4,385.9 216.4,346.2 226.7,346.2 226.7,342.4 216.4,342.4 212.6,342.4 
			202.4,342.4 202.4,346.2 212.6,346.2 		"/>
		<path id="XMLID_64_" d="M467.4,368h13c-1.8,8.6-9.6,15.1-18.6,15.1h-0.9c-10.5,0-18.9-8.5-18.9-18.9c0-10.5,8.5-18.9,18.9-18.9
			h0.9c5.4,0,10.5,2.3,14.1,6.3l0.4,0.5l3.4-1.8l-0.7-0.7c-4-4.7-9.7-7.6-15.9-7.9h-2.2c-12.4,0-22.7,10.1-22.7,22.7
			c0,12.4,10.3,22.7,22.7,22.7h1.3h0.9l0,0c10.5-0.5,19.3-8.5,21.1-18.7l0.2-2v-1.8h-17.1v3.4H467.4z"/>
		<path id="XMLID_65_" d="M420.2,429.1c-1.3,9.4-9.4,16.2-18.7,16.2h-0.9c-10.5,0-18.9-8.5-18.9-18.9c0-10.5,8.5-18.9,18.9-18.9h0.9
			c5.4,0,10.5,2.3,14.1,6.3l0.4,0.5l3.4-1.8l-0.7-0.7c-4-4.7-9.7-7.6-15.9-7.7h-2.2c-12.4,0-22.7,10.1-22.7,22.7
			c0,12.4,10.3,22.7,22.7,22.7h1.3h0.9l0,0c10.8-0.5,19.8-9,21.3-19.8l0.2-0.9h-3.8L420.2,429.1z"/>
		<polygon id="XMLID_66_" points="303.8,280.3 299.7,280.3 282.9,316.1 266,280.3 261.8,280.3 282.9,325 		"/>
		<polygon id="XMLID_67_" points="509.2,342.4 498.4,365.5 487.4,342.4 483.3,342.4 496.3,370 496.4,370.9 496.4,385.9 500.2,385.9 
			500.2,370.9 500.4,370 513.4,342.4 		"/>
	</g>
</g>
</svg>
